<svg xmlns="http://www.w3.org/2000/svg"><symbol id="heart" viewBox="0 0 256 256"><path fill="#f06" d="M206.7 20c-60.9-12-79.3 36.4-79.3 36.4S109 7.5 48.2 20c-30.4 6.3-123.9 71.9 79.2 220.6C330.6 91.9 240.6 26.8 206.7 20z"/></symbol><symbol id="logo" viewBox="0 0 297.7 352.6"><style>.st0{fill:#009aff}</style><path id="XMLID_1_" d="M148.9 0l148.9 128.6s-7.9 49.8-38.6 106.2h-71.4v-77.6h-.1c0-.8.1-1.5.1-2.3 0-21.4-17.4-38.8-38.8-38.8L148.9 0zM110 154.9c0 .8.1 1.5.1 2.3h-.1v77.7H38.6c22.6 41.4 57.4 86.4 110.3 117.7V116.1c-21.5 0-38.9 17.4-38.9 38.8z" class="st0"/></symbol><symbol id="menu" viewBox="0 0 256 256"><rect width="237.1" height="25.4" x="9.5" y="51.6" fill="#f06" rx="12.7" ry="12.7"/><rect width="237.1" height="25.4" x="9.5" y="115.9" fill="#f06" rx="12.7" ry="12.7"/><rect width="237.1" height="25.4" x="9.5" y="180.3" fill="#f06" rx="12.7" ry="12.7"/></symbol><symbol id="uncheck" viewBox="0 0 256 256"><rect width="320" height="34.29" x="-32" y="112.2" fill="#f06" rx="17.1" ry="17.1" transform="rotate(-45 128.043 129.263)"/><rect width="320" height="34.29" x="-32" y="112.2" fill="#f06" rx="17.1" ry="17.1" transform="rotate(-135 128.002 129.277)"/></symbol></svg>