<?xml version="1.0" encoding="utf-8"?>
<!-- Generator: Adobe Illustrator 21.0.2, SVG Export Plug-In . SVG Version: 6.00 Build 0)  -->
<svg version="1.1" id="Layer_1" xmlns="http://www.w3.org/2000/svg" xmlns:xlink="http://www.w3.org/1999/xlink" x="0px" y="0px"
	 viewBox="0 0 297.7 352.6" style="enable-background:new 0 0 297.7 352.6;" xml:space="preserve">
<style type="text/css">
	.st0{fill:#009AFF;}
	.st1{fill:#00ECFF;}
</style>
<g id="XMLID_1_">
	<g>
		<path class="st0" d="M148.9,0l148.9,128.6c0,0-7.9,49.8-38.6,106.2h-71.4v-77.6h-0.1c0-0.8,0.1-1.5,0.1-2.3
			c0-21.4-17.4-38.8-38.8-38.8L148.9,0L148.9,0z"/>
		<path class="st1" d="M187.7,234.9v-77.7h-0.1c0-0.8,0.1-1.5,0.1-2.3c0-21.4-17.4-38.8-38.8-38.8v118.8v6.6v111.1
			c52.9-31.3,87.7-76.3,110.2-117.7H187.7z"/>
		<path class="st0" d="M110,154.9c0,0.8,0.1,1.5,0.1,2.3H110v77.7H38.6c22.6,41.4,57.4,86.4,110.3,117.7V241.5v-6.6V116.1
			C127.4,116.1,110,133.5,110,154.9z"/>
		<path class="st1" d="M148.9,0v116.2c-21.4,0-38.8,17.4-38.8,38.8c0,0.8,0.1,1.5,0.1,2.3H110v77.6H38.6C7.9,178.5,0,128.6,0,128.6
			L148.9,0z"/>
	</g>
</g>
</svg>
